<svg width="15" height="20" viewBox="0 0 12 15" fill="none" xmlns="http://www.w3.org/2000/svg">
<path d="M8.15 1H2.3C1.95522 1 1.62456 1.13696 1.38076 1.38076C1.13696 1.62456 1 1.95522 1 2.3V12.7C1 13.0448 1.13696 13.3754 1.38076 13.6192C1.62456 13.863 1.95522 14 2.3 14H10.1C10.4448 14 10.7754 13.863 11.0192 13.6192C11.263 13.3754 11.4 13.0448 11.4 12.7V4.25L8.15 1Z" stroke="currentColor" stroke-linecap="round" stroke-linejoin="round"/>
<path d="M7.5 1V3.6C7.5 3.94478 7.63696 4.27544 7.88076 4.51924C8.12456 4.76304 8.45522 4.9 8.8 4.9H11.4" stroke="currentColor" stroke-linecap="round" stroke-linejoin="round"/>
<path d="M6.2002 11.4V7.5" stroke="currentColor" stroke-linecap="round" stroke-linejoin="round"/>
<path d="M4.25 9.45001L6.2 11.4L8.15 9.45001" stroke="currentColor" stroke-linecap="round" stroke-linejoin="round"/>
</svg>
